<svg xmlns="http://www.w3.org/2000/svg" xmlns:xlink="http://www.w3.org/1999/xlink" viewBox="0,0,256,256" width="384px" height="384px" fill-rule="nonzero"><g fill="#ffffff" fill-rule="nonzero" stroke="none" stroke-width="1" stroke-linecap="butt" stroke-linejoin="miter" stroke-miterlimit="10" stroke-dasharray="" stroke-dashoffset="0" font-family="none" font-weight="none" font-size="none" text-anchor="none" style="mix-blend-mode: normal"><g transform="scale(10.66667,10.66667)"><path d="M22.567,4.538c-0.292,-0.306 -0.702,-0.481 -1.125,-0.481h-4.542c-0.46,-2.286 -2.481,-4.014 -4.9,-4.014c-2.419,0 -4.441,1.727 -4.9,4.013h-4.543c-0.422,0 -0.832,0.176 -1.125,0.481c-0.293,0.307 -0.45,0.727 -0.431,1.154l0.709,15.254c0.081,1.737 1.497,3.098 3.225,3.098h14.13c1.728,0 3.145,-1.36 3.225,-3.097l0.709,-15.256c0.019,-0.426 -0.138,-0.846 -0.432,-1.152zM12,2.043c1.307,0 2.41,0.845 2.82,2.014h-5.64c0.41,-1.169 1.513,-2.014 2.82,-2.014zM20.292,20.853c-0.031,0.667 -0.57,1.189 -1.227,1.189h-14.13c-0.657,0 -1.196,-0.522 -1.227,-1.19l-0.687,-14.796h17.959z"></path><path d="M16.06,16.623c0,1.9 -1.8,3.38 -4.09,3.38c-2.491,0 -4.25,-1.77 -4.25,-1.77l1.1,-1.75c0,0 1.99,1.49 3.15,1.49c1.12,0 2.06,-0.62 2.06,-1.35c0,-0.92 -0.6,-1.29 -2.41,-1.95c-1.55,-0.57 -3.46,-1.27 -3.46,-3.43c0,-1.88 1.67,-3.3 3.88,-3.3c2.485,0 3.797,1.388 3.8,1.39l-1.04,1.72c-0.001,0 -1.519,-1.09 -2.76,-1.09c-1.08,0 -1.86,0.54 -1.86,1.28c0,0.64 0.56,0.96 2.13,1.53c1.58,0.569 3.75,1.359 3.75,3.85z"></path></g></g></svg>