<svg xmlns="http://www.w3.org/2000/svg" version="1.1" viewBox="-5.0 -10.0 110.0 135.0">
 <path d="m66.297 65.57h-32.59c-2.3477 0-4.5625-0.92187-6.2344-2.6016-1.668-1.6719-2.5898-3.8828-2.5898-6.2227v-15.578c0-0.55078 0.44922-1 1-1 0.55078 0 1 0.44922 1 1v15.578c0 3.7617 3.0625 6.8242 6.8242 6.8242h32.59c3.6992 0 6.8242-3.125 6.8242-6.8242v-15.578c0-0.55078 0.44922-1 1-1 0.55078 0 1 0.44922 1 1v15.578c0 2.3398-0.92188 4.5469-2.5977 6.2266-1.6758 1.6758-3.8867 2.5977-6.2266 2.5977z"/>
 <path d="m64.609 73.742h-29.211c-0.55078 0-1-0.44922-1-1 0-0.55078 0.44922-1 1-1h29.211c0.55078 0 1 0.44922 1 1 0 0.55078-0.44922 1-1 1z"/>
 <path d="m56.738 73.742h-13.473c-0.33203 0-0.64453-0.16797-0.83203-0.44531s-0.21875-0.62891-0.09375-0.9375l3.3789-8.1719c0.15625-0.375 0.51953-0.61719 0.92578-0.61719h6.7109c0.40625 0 0.76953 0.24219 0.92578 0.61719l3.3789 8.1719c0.12891 0.30859 0.09375 0.66016-0.09375 0.9375s-0.49609 0.44531-0.83203 0.44531zm-11.977-2h10.48l-2.5508-6.1719h-5.375l-2.5508 6.1719z"/>
 <path d="m74.121 57.746h-48.238c-0.55078 0-1-0.44922-1-1 0-0.55078 0.44922-1 1-1h48.238c0.55078 0 1 0.44922 1 1 0 0.55078-0.44922 1-1 1z"/>
 <path d="m50.027 42.215c-3.6289 0-6.5781-2.9492-6.5781-6.5781v-8.3789c0-0.55078 0.44922-1 1-1h11.18c0.55078 0 1 0.44922 1 1v8.3789c0 3.6289-2.9609 6.5781-6.6016 6.5781zm-4.5781-13.957v7.3789c0 2.5234 2.0547 4.5781 4.5781 4.5781 2.5391 0 4.6016-2.0547 4.6016-4.5781v-7.3789z"/>
 <path d="m37.688 42.215c-1.7734 0-3.3359-0.69922-4.3984-1.9727-1.0625-1.2734-1.4883-3.0195-1.168-4.7812l1.5273-8.3789c0.085937-0.47656 0.5-0.82031 0.98437-0.82031h9.8359c0.26953 0 0.52734 0.10938 0.71484 0.30078s0.28906 0.45312 0.28516 0.72266l-0.18359 8.3789c-0.082031 3.7539-4.0781 6.5547-7.5977 6.5547zm-2.2188-13.957-1.3789 7.5586c-0.21875 1.1953 0.042968 2.3125 0.73828 3.1445 0.67578 0.80859 1.6914 1.2539 2.8633 1.2539 2.4883 0 5.5391-2.0508 5.5977-4.6016l0.16406-7.3555z"/>
 <path d="m26.508 42.215c-1.7812 0-3.3438-0.70312-4.4023-1.9844-1.0547-1.2773-1.4727-3.0156-1.1406-4.7734l0.92578-5.1797c0.41016-2.2188 2.5312-4.0195 4.7344-4.0195h8.0078c0.29688 0 0.57813 0.13281 0.76953 0.35938 0.19141 0.22656 0.26953 0.52734 0.21484 0.82031l-1.5273 8.3789c-0.64062 3.5273-4.043 6.3984-7.582 6.3984zm0.11719-13.957c-1.2617 0-2.5273 1.0898-2.7656 2.375l-0.92578 5.1797v0.011719c-0.22656 1.1914 0.027344 2.3047 0.71484 3.1328 0.67187 0.8125 1.6875 1.2578 2.8633 1.2578 2.5742 0 5.1445-2.1797 5.6133-4.7578l1.3125-7.1992zm-4.6758 7.3789z"/>
 <path d="m62.316 42.215c-3.5156 0-7.5117-2.8047-7.5977-6.5547l-0.20703-8.3789c-0.007813-0.26953 0.09375-0.53125 0.28516-0.72266 0.1875-0.19141 0.44531-0.30078 0.71484-0.30078h9.8594c0.48438 0 0.89844 0.34766 0.98438 0.82422l1.5039 8.3789c0.33203 1.7539-0.082031 3.4961-1.1406 4.7695-1.0586 1.2773-2.625 1.9844-4.4023 1.9844zm-5.7773-13.957 0.18359 7.3555c0.058594 2.5508 3.1094 4.6016 5.5977 4.6016 1.1719 0 2.1914-0.44531 2.8633-1.2578 0.6875-0.82812 0.94141-1.9414 0.71484-3.1328l-1.3594-7.5664z"/>
 <path d="m73.496 42.215c-3.5234 0-6.9336-2.8672-7.6016-6.3906l-1.5078-8.3906c-0.050781-0.29297 0.027343-0.58984 0.21875-0.82031 0.19141-0.22656 0.47266-0.35938 0.76562-0.35938h8.0078c2.2031 0 4.3242 1.8008 4.7344 4.0117l0.92578 5.1914c0.32031 1.7695-0.10156 3.5156-1.168 4.793-1.0547 1.2656-2.6094 1.9609-4.3789 1.9609zm-6.9258-13.957 1.293 7.2031c0.48828 2.5742 3.0703 4.7539 5.6367 4.7539 1.1641 0 2.1719-0.44141 2.8438-1.2461 0.69141-0.82812 0.95312-1.9492 0.73438-3.1562l-0.92578-5.1875c-0.23438-1.2812-1.5039-2.3711-2.7656-2.3711h-6.8125z"/>
 <path d="m45.629 51.035h-9.2344c-2.25 0-4.0781-1.8398-4.0781-4.1016v-8.2656c0-0.55078 0.44922-1 1-1 0.55078 0 1 0.44922 1 1v8.2656c0 1.1602 0.93359 2.1016 2.0781 2.1016h9.2344c1.1445 0 2.0781-0.94141 2.0781-2.1016v-5.8789c0-0.55078 0.44922-1 1-1s1 0.44922 1 1v5.8789c0 2.2617-1.8281 4.1016-4.0781 4.1016z"/>
 <path d="m67.293 46.867h-13.773c-0.55078 0-1-0.44922-1-1 0-0.55078 0.44922-1 1-1h13.773c0.55078 0 1 0.44922 1 1 0 0.55078-0.44922 1-1 1z"/>
 <path d="m67.293 51.012h-8.0078c-0.55078 0-1-0.44922-1-1s0.44922-1 1-1h8.0078c0.55078 0 1 0.44922 1 1s-0.44922 1-1 1z"/>
<text x="0.0" y="117.5" font-size="5.0" font-weight="bold" font-family="Arbeit Regular, Helvetica, Arial-Unicode, Arial, Sans-serif" fill="#000000">Created by Budogol</text><text x="0.0" y="122.5" font-size="5.0" font-weight="bold" font-family="Arbeit Regular, Helvetica, Arial-Unicode, Arial, Sans-serif" fill="#000000">from Noun Project</text></svg>